<?xml version="1.0" standalone="no"?>
<!DOCTYPE svg PUBLIC "-//W3C//DTD SVG 20010904//EN"
 "http://www.w3.org/TR/2001/REC-SVG-20010904/DTD/svg10.dtd">
<svg version="1.0" xmlns="http://www.w3.org/2000/svg"
 width="2000.000000pt" height="2000.000000pt" viewBox="0 0 2000.000000 2000.000000"
 preserveAspectRatio="xMidYMid meet">
<metadata>
Created by potrace 1.11, written by Peter Selinger 2001-2013
</metadata>
<g transform="translate(0.000000,2000.000000) scale(0.100000,-0.100000)"
fill="#000000" stroke="none">
<path d="M9649 19946 c-2 -2 -74 -7 -159 -10 -85 -4 -166 -8 -180 -10 -14 -3
-69 -7 -123 -10 -54 -4 -117 -8 -140 -11 -23 -2 -69 -7 -102 -10 -53 -5 -140
-15 -260 -31 -71 -9 -169 -24 -315 -49 -52 -9 -108 -18 -125 -21 -99 -16 -272
-51 -420 -86 -93 -21 -177 -41 -187 -43 -43 -9 -375 -96 -388 -102 -8 -3 -20
-7 -26 -8 -6 -2 -51 -15 -100 -31 -49 -15 -94 -28 -101 -30 -16 -3 -282 -94
-403 -137 -267 -97 -634 -246 -625 -255 3 -3 346 -5 762 -4 l758 0 160 42 c88
22 223 55 300 71 77 17 149 33 160 35 11 2 83 16 160 29 77 14 151 27 165 30
48 9 285 44 340 49 30 3 64 8 75 10 22 4 135 16 200 21 94 8 183 16 220 20
183 20 952 28 1210 11 72 -4 153 -9 180 -11 99 -6 220 -17 225 -20 3 -1 41 -6
85 -10 44 -4 94 -9 110 -11 17 -2 55 -6 85 -9 30 -4 62 -8 70 -10 8 -2 38 -7
65 -10 28 -3 61 -8 75 -10 14 -3 39 -7 55 -9 47 -7 118 -18 135 -21 304 -57
637 -130 840 -185 63 -17 123 -33 134 -35 10 -2 71 -21 135 -40 64 -20 152
-47 196 -61 44 -14 96 -31 115 -38 19 -8 82 -31 140 -51 179 -64 458 -173 625
-247 261 -115 715 -343 883 -444 40 -24 74 -44 77 -44 2 0 39 -22 82 -48 43
-26 85 -51 93 -55 8 -4 27 -15 42 -25 15 -9 75 -48 135 -86 149 -94 404 -271
548 -380 148 -111 466 -367 518 -415 59 -55 77 -71 152 -136 184 -159 578
-554 726 -730 19 -22 48 -54 64 -71 17 -17 39 -42 50 -55 11 -13 40 -49 65
-79 25 -30 55 -66 66 -80 92 -109 138 -166 189 -235 33 -44 62 -82 65 -85 11
-10 141 -190 229 -317 51 -73 93 -133 94 -133 1 0 2 197 2 438 l0 438 -35 44
c-44 56 -62 79 -75 94 -5 6 -28 34 -50 61 -22 28 -52 64 -66 80 -14 17 -75 86
-135 155 -155 179 -190 216 -474 501 -232 232 -346 340 -514 484 -32 28 -68
59 -80 70 -12 12 -45 39 -72 60 -27 22 -51 42 -54 45 -3 3 -59 48 -125 100
-111 88 -164 128 -285 217 -25 18 -49 36 -55 41 -5 4 -41 30 -80 57 -38 27
-72 52 -75 55 -3 3 -12 10 -21 15 -9 6 -63 42 -120 80 -57 39 -108 72 -114 74
-5 2 -12 7 -15 11 -3 4 -38 27 -78 51 -40 24 -92 56 -115 71 -23 15 -53 33
-67 40 -14 7 -27 15 -30 19 -3 3 -17 12 -32 20 -15 8 -87 48 -160 90 -259 149
-635 341 -868 444 -85 37 -173 76 -195 85 -267 119 -879 334 -1180 415 -27 7
-86 23 -130 35 -98 27 -88 24 -215 55 -119 30 -408 92 -490 106 -52 8 -74 12
-130 24 -14 2 -38 7 -55 10 -16 3 -39 7 -50 9 -11 2 -45 7 -75 12 -30 4 -57 8
-60 9 -3 1 -34 5 -70 10 -36 5 -67 9 -70 10 -3 1 -36 5 -75 10 -38 5 -72 9
-75 10 -3 1 -39 5 -80 9 -41 5 -82 10 -91 11 -8 2 -53 6 -100 10 -46 4 -104 8
-129 10 -46 4 -143 11 -285 21 -89 7 -851 15 -856 10z"/>
<path d="M1277 18730 c-10 -4 -12 -348 -12 -1622 0 -890 1 -1618 3 -1618 1 0
54 80 119 178 64 97 119 179 122 182 3 3 18 23 33 45 38 57 109 157 135 191
52 66 90 120 100 139 6 13 9 382 9 1005 l-1 985 6022 0 c5399 0 6018 2 5990
15 -18 9 -61 28 -97 44 -36 16 -92 41 -125 56 -33 15 -103 44 -155 65 -52 20
-108 43 -125 50 -67 30 -148 60 -300 112 -88 30 -167 57 -175 60 -8 4 -18 7
-22 8 -5 2 -9 3 -10 5 -2 1 -10 3 -18 5 -8 2 -82 25 -165 51 l-150 48 -5583 0
c-3070 1 -5588 -1 -5595 -4z"/>
<path d="M15714 18582 c127 -84 233 -156 236 -161 3 -4 21 -18 40 -31 19 -13
81 -58 138 -99 l103 -76 992 0 992 0 0 -6012 c0 -3307 3 -6013 6 -6013 5 0
171 371 175 394 2 6 28 72 58 146 52 128 181 488 191 534 2 11 23 80 46 151
l42 130 1 5595 1 5595 -1626 0 -1625 0 230 -153z"/>
<path d="M3886 17841 c-11 -8 -23 -17 -26 -20 -3 -3 -27 -24 -55 -46 -27 -21
-52 -42 -55 -45 -3 -3 -21 -17 -42 -32 -20 -15 -42 -33 -50 -40 -7 -7 -36 -31
-63 -53 -28 -21 -52 -42 -55 -45 -3 -3 -25 -23 -50 -44 -145 -126 -383 -350
-539 -507 -166 -167 -278 -287 -411 -438 -30 -35 -66 -76 -80 -91 -14 -15 -32
-36 -40 -47 -8 -10 -49 -59 -91 -108 -299 -355 -697 -926 -911 -1305 -14 -25
-48 -83 -75 -130 -27 -47 -64 -112 -83 -145 -47 -86 -232 -452 -255 -505 -10
-25 -23 -51 -29 -58 -5 -7 -24 -48 -42 -90 -41 -98 -101 -238 -119 -277 -8
-16 -28 -66 -45 -110 -17 -44 -35 -89 -39 -100 -5 -11 -14 -36 -21 -55 -7 -19
-16 -44 -21 -55 -9 -22 -110 -310 -157 -450 -77 -228 -179 -599 -231 -835 -47
-216 -96 -466 -106 -535 -3 -23 -8 -52 -10 -65 -3 -14 -10 -54 -16 -90 -5 -36
-12 -78 -15 -95 -3 -16 -7 -43 -9 -60 -1 -16 -8 -66 -14 -110 -6 -44 -13 -102
-15 -130 -5 -52 -15 -138 -21 -190 -2 -16 -7 -70 -10 -120 -4 -49 -8 -100 -10
-112 -26 -162 -26 -1124 0 -1403 2 -25 7 -83 11 -130 16 -206 25 -303 29 -320
2 -8 7 -44 10 -80 3 -36 8 -72 10 -80 2 -8 7 -40 10 -70 3 -30 8 -62 10 -70 2
-8 7 -35 10 -60 6 -40 21 -129 40 -240 6 -31 26 -137 40 -210 3 -14 8 -41 11
-60 17 -97 119 -508 169 -680 31 -107 58 -202 60 -210 48 -188 397 -1121 414
-1104 2 2 4 347 4 766 0 698 -1 768 -18 823 -9 33 -18 67 -20 75 -2 8 -15 62
-30 120 -15 58 -29 114 -31 124 -2 11 -13 65 -25 120 -11 56 -23 110 -25 121
-8 39 -43 230 -48 265 -6 37 -8 49 -31 185 -2 11 -9 58 -15 105 -6 47 -13 102
-16 122 -15 111 -20 157 -28 253 -10 114 -16 180 -20 220 -2 22 -8 105 -12
185 -3 80 -8 163 -10 185 -4 52 -3 573 1 695 3 87 8 173 20 320 3 30 7 84 10
120 3 36 7 85 10 110 5 48 14 139 20 205 2 22 9 74 15 115 6 41 13 93 17 115
7 56 51 325 57 355 3 14 10 54 16 90 6 36 20 101 30 145 10 45 21 92 23 105 3
14 13 57 22 95 9 39 18 78 20 88 2 10 7 27 10 37 3 10 8 27 10 37 95 407 330
1098 497 1463 17 36 31 70 33 75 7 32 229 486 317 650 61 114 223 391 276 474
20 31 41 64 47 74 36 62 296 447 332 492 5 6 56 75 115 155 59 80 115 154 125
165 10 11 63 76 118 144 55 68 118 145 141 170 23 25 83 93 135 151 154 172
279 301 480 495 111 107 175 165 339 310 25 22 47 42 50 45 3 3 43 36 90 74
47 38 90 74 95 80 6 6 46 40 90 75 44 34 90 72 103 82 12 10 26 19 31 19 5 0
11 4 13 8 3 7 32 29 164 127 15 11 56 41 93 67 36 26 71 51 76 55 6 5 43 30
83 57 39 27 72 52 72 55 0 4 -194 6 -431 6 -360 0 -435 -2 -453 -14z"/>
<path d="M10369 16963 c-2 -372 0 -5665 3 -5667 7 -5 254 -208 273 -224 11
-10 45 -38 75 -62 30 -25 64 -53 75 -62 27 -22 320 -264 415 -341 41 -34 80
-66 87 -72 6 -5 28 -24 50 -41 33 -28 785 -646 898 -739 22 -18 83 -68 135
-111 52 -42 97 -79 100 -82 3 -2 -6 -13 -20 -24 -14 -11 -39 -32 -55 -46 -17
-15 -64 -54 -105 -86 -41 -33 -79 -65 -85 -71 -5 -6 -32 -28 -60 -50 -60 -48
-212 -173 -275 -225 -68 -57 -232 -191 -274 -225 -21 -16 -46 -37 -56 -45 -10
-8 -37 -31 -60 -50 -23 -19 -50 -42 -60 -50 -10 -8 -35 -28 -56 -45 -21 -16
-45 -37 -54 -45 -9 -8 -38 -33 -65 -55 -28 -22 -61 -50 -75 -61 -14 -12 -106
-88 -205 -169 -99 -82 -187 -154 -195 -162 -8 -7 -76 -63 -150 -124 -74 -61
-157 -130 -184 -153 -27 -22 -56 -46 -64 -52 -13 -9 -15 -297 -14 -2415 0
-1322 1 -2414 1 -2427 1 -22 3 -23 64 -18 34 3 94 8 132 11 112 9 238 22 295
30 14 3 47 7 74 9 75 8 147 19 273 41 16 3 57 10 93 16 129 22 414 89 419 98
3 5 6 909 5 2008 l-1 2000 34 23 c18 12 33 26 33 31 0 5 5 9 11 9 7 0 17 6 23
14 6 8 76 67 156 132 80 65 150 123 156 129 6 5 25 21 43 35 18 14 38 30 44
35 11 10 394 326 707 584 63 52 119 99 126 105 6 6 26 22 44 36 18 14 42 33
54 43 11 11 38 33 60 50 39 32 108 90 156 131 14 11 41 33 60 47 19 15 44 35
55 45 11 11 45 39 75 64 30 25 57 47 60 50 3 3 28 24 56 47 l52 42 28 -22 c37
-28 73 -58 94 -77 9 -8 36 -31 61 -50 24 -19 55 -44 69 -56 14 -12 79 -67 145
-121 66 -54 131 -108 145 -119 28 -25 484 -401 548 -452 22 -19 51 -43 64 -54
13 -11 80 -67 150 -124 70 -58 129 -108 131 -112 3 -4 -13 -45 -35 -92 -21
-47 -39 -87 -39 -90 -1 -3 -4 -9 -9 -15 -4 -5 -24 -41 -45 -80 -58 -107 -124
-223 -190 -334 -29 -49 -130 -207 -135 -211 -3 -3 -25 -34 -50 -70 -24 -36
-48 -69 -52 -75 -5 -5 -46 -61 -93 -123 -47 -63 -91 -120 -98 -127 -6 -7 -21
-25 -32 -39 -70 -89 -211 -243 -375 -406 -167 -168 -204 -202 -320 -300 -36
-30 -67 -57 -70 -60 -3 -3 -27 -23 -55 -45 -27 -22 -56 -45 -63 -52 -7 -7 -17
-13 -20 -13 -4 0 -20 -11 -35 -25 -15 -14 -84 -66 -154 -115 -71 -50 -133 -93
-139 -97 -11 -9 -4 -5 -180 -112 l-131 -81 1 -752 c1 -414 4 -755 7 -758 7 -6
301 130 310 143 3 5 9 8 13 8 13 -2 213 104 347 184 50 30 93 55 95 55 10 0
469 301 514 337 8 7 42 32 75 57 33 25 65 49 70 53 6 5 42 33 80 63 39 30 81
65 95 76 247 210 349 303 540 494 187 186 350 367 484 535 26 33 53 67 59 75
32 40 195 259 217 291 119 177 157 236 252 387 59 96 108 176 108 178 0 2 11
22 25 43 30 49 209 400 255 501 46 103 90 201 100 225 4 11 15 36 23 55 76
179 261 725 253 746 -2 6 -86 78 -186 160 -101 82 -188 154 -194 159 -24 21
-84 72 -126 105 -24 19 -85 69 -134 110 -50 41 -140 116 -201 165 -60 49 -121
99 -135 112 -23 20 -223 185 -329 272 -25 20 -61 50 -80 66 -20 17 -74 62
-121 100 -96 78 -113 92 -143 118 -12 11 -50 42 -84 69 l-62 51 82 65 c45 36
84 68 87 71 3 4 39 33 80 66 41 33 77 62 80 65 3 3 52 43 110 89 58 47 121 99
141 115 19 17 52 45 73 61 21 17 46 37 57 47 11 9 38 31 61 50 117 95 660 540
703 576 11 10 54 44 95 77 41 33 80 65 85 71 12 13 256 211 294 239 l28 20
-38 185 c-107 529 -227 914 -451 1450 -134 320 -380 768 -601 1100 -118 176
-346 485 -412 556 -5 6 -28 33 -50 60 -48 58 -112 132 -128 149 -7 7 -46 49
-87 95 -169 187 -447 454 -635 610 -49 41 -92 77 -95 80 -3 3 -52 43 -110 88
-58 45 -110 86 -116 91 -7 6 -52 38 -100 73 -49 34 -90 66 -92 70 -2 5 -7 8
-11 8 -5 0 -59 34 -122 77 -106 71 -298 191 -330 206 -8 4 -27 16 -44 27 -79
50 -373 204 -525 274 -47 22 -101 47 -121 57 l-36 18 0 -762 0 -761 79 -48
c44 -26 81 -48 84 -48 3 0 10 -5 17 -10 7 -6 77 -54 157 -107 80 -53 147 -99
150 -102 3 -4 41 -33 85 -66 299 -221 665 -564 895 -840 41 -50 78 -92 81 -95
15 -12 229 -297 279 -370 30 -45 60 -86 65 -93 17 -20 147 -233 217 -357 91
-160 174 -328 252 -510 37 -85 71 -164 76 -175 46 -103 151 -418 143 -425 -5
-4 -35 -29 -68 -55 -32 -26 -64 -53 -71 -59 -6 -6 -26 -23 -45 -38 -28 -22
-110 -89 -324 -266 -11 -10 -56 -46 -100 -82 -44 -36 -93 -77 -110 -91 -26
-23 -155 -130 -195 -162 -45 -37 -126 -103 -130 -107 -3 -3 -86 -72 -185 -154
-171 -141 -218 -179 -275 -227 -35 -29 -113 -93 -125 -101 -5 -4 -23 -19 -39
-32 -22 -20 -31 -23 -40 -13 -7 7 -32 28 -56 47 -49 39 -112 92 -120 100 -3 3
-27 24 -55 45 -27 22 -52 42 -55 45 -3 3 -84 71 -180 150 -96 80 -184 152
-195 162 -11 9 -108 89 -215 178 -107 88 -204 169 -215 178 -11 9 -43 35 -70
57 -28 22 -59 48 -70 57 -11 9 -63 52 -115 95 -52 43 -104 85 -115 95 -46 38
-333 274 -395 324 -19 16 -37 31 -40 34 -3 3 -26 22 -51 42 l-46 37 1 2441 c1
1343 -1 2446 -4 2450 -3 5 -59 20 -125 34 -66 15 -149 33 -185 41 -36 8 -81
17 -100 19 -19 3 -84 14 -145 25 -60 11 -134 23 -164 26 -30 4 -63 9 -75 11
-12 3 -37 7 -56 8 -19 2 -57 7 -85 10 -69 8 -139 15 -215 21 -36 2 -95 7 -132
10 l-68 6 -1 -78z"/>
<path d="M9539 17026 c-2 -2 -62 -7 -134 -11 -71 -4 -132 -8 -135 -10 -3 -1
-41 -6 -85 -9 -44 -4 -87 -9 -95 -11 -8 -2 -46 -6 -83 -10 -37 -3 -78 -8 -90
-11 -12 -2 -42 -7 -67 -10 -25 -3 -52 -7 -60 -9 -8 -3 -33 -7 -55 -10 -22 -3
-65 -11 -95 -16 -30 -6 -68 -13 -85 -16 -155 -27 -474 -106 -666 -163 -57 -17
-108 -33 -114 -34 -5 -1 -28 -8 -50 -15 -469 -154 -894 -341 -1290 -568 -168
-96 -169 -97 -175 -103 -3 -3 -39 -26 -80 -50 -75 -44 -114 -70 -285 -190
-126 -88 -159 -113 -168 -127 -4 -7 -14 -13 -22 -13 -7 0 -15 -3 -17 -7 -1 -5
-37 -35 -78 -67 -41 -33 -91 -73 -111 -90 -19 -17 -53 -46 -75 -64 -21 -19
-63 -55 -93 -80 -125 -107 -520 -509 -611 -621 -19 -24 -42 -51 -51 -60 -24
-25 -128 -155 -213 -266 -42 -55 -81 -105 -86 -112 -61 -75 -440 -666 -440
-687 0 -2 -16 -33 -36 -68 -57 -98 -214 -411 -214 -425 0 -7 -4 -13 -10 -13
-5 0 -10 -6 -10 -13 0 -8 -14 -42 -31 -78 -33 -66 -137 -317 -169 -404 -33
-90 -132 -380 -135 -396 -2 -9 -10 -37 -19 -61 -76 -227 -187 -709 -241 -1053
-19 -119 -20 -127 -30 -230 -4 -38 -9 -79 -11 -90 -2 -10 -6 -51 -9 -90 -3
-38 -8 -92 -10 -120 -27 -295 -27 -932 0 -1209 2 -22 7 -72 10 -110 4 -38 8
-79 10 -90 2 -12 6 -48 9 -81 4 -33 8 -71 10 -85 7 -37 25 -165 31 -208 3 -20
7 -46 9 -57 3 -17 25 -130 42 -224 11 -56 77 -335 104 -436 81 -306 235 -737
362 -1018 110 -242 302 -604 409 -772 24 -38 49 -77 54 -87 24 -41 212 -317
248 -363 21 -27 49 -63 62 -80 12 -16 50 -65 84 -108 177 -223 264 -322 481
-542 173 -176 272 -268 469 -435 29 -25 63 -53 75 -64 11 -10 37 -30 56 -45
19 -14 37 -28 40 -31 9 -10 233 -175 320 -236 198 -139 424 -279 675 -419 116
-64 308 -162 427 -215 73 -33 140 -64 149 -69 15 -9 16 56 17 737 0 411 -2
755 -4 764 -3 9 -51 44 -107 78 -56 33 -156 99 -222 145 -66 47 -127 88 -135
92 -8 4 -21 12 -30 19 -8 7 -33 27 -55 43 -22 17 -44 34 -50 38 -79 62 -101
79 -103 85 -2 5 -10 8 -18 8 -8 0 -14 4 -14 8 0 4 -21 24 -47 45 -49 38 -62
49 -198 170 -118 107 -290 279 -390 392 -49 55 -94 105 -100 110 -7 6 -29 32
-51 60 -21 27 -49 61 -61 75 -88 101 -295 396 -408 580 -32 52 -68 111 -81
130 -63 98 -219 408 -307 610 -102 233 -246 651 -282 820 -2 8 -17 74 -34 145
-17 72 -33 138 -35 148 -4 16 91 17 1922 15 l1927 -3 1 -2852 c0 -1569 3
-2855 6 -2858 4 -5 174 -44 348 -81 77 -16 351 -60 430 -69 30 -3 66 -8 80
-10 32 -5 110 -13 180 -20 296 -28 310 -28 311 -8 0 10 1 3176 2 7035 l2 7018
-46 0 c-25 0 -48 -2 -50 -4z m-1263 -4198 l-1 -2593 -1965 -1 c-1081 0 -1971
2 -1978 4 -13 5 -12 85 2 237 9 92 19 184 22 213 14 111 23 178 36 247 5 33
12 74 15 90 2 17 20 100 39 185 45 198 34 156 89 360 17 64 72 234 106 325 22
61 41 115 43 120 2 6 8 24 15 40 6 17 17 44 23 60 6 17 24 58 40 93 15 35 28
65 28 68 0 3 27 61 60 131 33 69 60 127 60 128 0 4 115 219 155 290 45 81 153
252 233 370 306 451 652 830 1102 1209 14 11 55 43 90 71 36 27 70 53 75 58
58 48 359 257 370 257 2 0 36 22 77 48 161 106 467 269 658 352 41 18 79 36
84 41 6 5 16 9 24 9 7 0 39 12 70 26 48 22 155 65 172 69 3 1 12 5 20 8 28 13
215 75 226 76 8 1 10 -733 10 -2591z"/>
<path d="M19099 14015 c0 -5 -1 -350 -1 -765 l-1 -755 56 -225 c31 -124 59
-241 62 -260 3 -19 12 -63 20 -96 16 -69 18 -81 40 -204 8 -47 17 -94 19 -105
2 -11 7 -42 10 -68 4 -27 9 -59 12 -70 7 -37 23 -139 29 -192 4 -27 8 -61 11
-75 2 -14 7 -52 10 -85 3 -33 7 -62 9 -65 2 -3 6 -46 10 -95 4 -50 8 -101 10
-115 37 -255 49 -1062 20 -1410 -2 -25 -6 -85 -10 -135 -8 -123 -14 -183 -19
-230 -3 -22 -8 -71 -12 -110 -3 -38 -8 -78 -9 -87 -2 -9 -7 -48 -10 -85 -4
-37 -9 -70 -10 -73 -2 -3 -6 -29 -10 -59 -4 -30 -8 -61 -10 -70 -1 -9 -6 -36
-10 -61 -3 -25 -13 -76 -20 -115 -8 -38 -16 -90 -20 -115 -3 -25 -8 -52 -10
-60 -2 -8 -7 -31 -10 -50 -17 -102 -116 -518 -171 -713 -183 -662 -470 -1365
-812 -1991 -45 -82 -82 -153 -82 -157 0 -4 -4 -9 -8 -11 -4 -1 -45 -66 -90
-143 -45 -77 -125 -205 -177 -285 -53 -80 -104 -158 -115 -175 -11 -16 -27
-41 -37 -54 -10 -13 -25 -34 -33 -46 -56 -83 -76 -110 -82 -113 -5 -2 -8 -10
-8 -18 0 -8 -4 -14 -9 -14 -4 0 -21 -19 -36 -42 -15 -23 -48 -66 -72 -97 -25
-31 -50 -63 -56 -71 -47 -62 -112 -146 -117 -150 -3 -3 -23 -27 -44 -55 -22
-27 -47 -58 -55 -67 -9 -9 -27 -31 -41 -49 -24 -31 -103 -122 -124 -145 -6 -6
-38 -42 -71 -80 -209 -240 -557 -581 -874 -854 -35 -30 -69 -59 -75 -65 -6 -5
-45 -37 -86 -70 -41 -33 -82 -67 -90 -75 -39 -36 -71 -60 -79 -60 -5 0 -11 -3
-13 -8 -5 -12 -265 -205 -430 -320 -82 -57 -148 -104 -148 -105 0 -1 198 -2
439 -2 l439 0 69 55 c93 76 102 82 126 103 12 10 37 31 56 45 31 24 68 55 166
140 288 250 673 629 895 881 36 40 70 79 75 85 6 6 39 45 74 86 36 41 68 77
73 78 4 2 8 8 8 13 0 5 8 17 18 27 9 10 31 35 47 56 17 21 35 44 40 50 33 36
182 227 204 261 14 22 31 45 37 50 6 6 22 26 35 45 13 19 27 40 32 45 69 85
339 492 443 667 123 208 252 435 297 521 28 56 55 104 60 105 4 2 7 8 7 13 0
4 33 75 73 156 81 164 175 371 233 508 49 118 154 386 159 405 2 8 34 98 70
200 157 437 314 1031 390 1470 4 19 11 60 16 90 22 122 31 177 35 210 2 19 6
46 9 60 3 14 7 45 10 69 3 23 7 55 9 70 11 67 41 349 51 471 3 36 7 90 10 120
27 343 27 1132 0 1410 -2 19 -6 73 -10 120 -4 47 -8 99 -10 115 -1 17 -6 66
-10 110 -4 44 -9 87 -10 95 -1 8 -6 44 -10 80 -4 36 -9 74 -11 85 -2 10 -6 37
-9 60 -6 48 -16 114 -20 135 -2 8 -8 51 -15 95 -7 44 -14 89 -16 100 -3 11
-11 58 -20 105 -117 659 -348 1425 -628 2085 -31 72 -56 126 -57 120z"/>
<path d="M1725 13698 c-32 -73 -68 -155 -81 -183 -60 -137 -173 -432 -230
-605 -8 -25 -19 -54 -24 -65 -5 -11 -35 -103 -66 -205 l-58 -185 0 -5588 c-1
-3074 1 -5592 4 -5596 6 -8 3230 -8 3230 0 0 4 -39 32 -87 62 -49 31 -93 60
-98 64 -6 4 -44 30 -85 58 -75 49 -307 215 -408 290 l-53 40 -992 0 -992 0 0
6023 c0 3312 0 6022 0 6022 -1 0 -27 -60 -60 -132z"/>
<path d="M2145 4346 l0 -443 30 -38 c17 -21 35 -43 40 -49 6 -6 28 -34 50 -61
42 -53 73 -91 90 -109 6 -6 28 -33 50 -61 22 -27 42 -52 45 -55 3 -3 59 -66
124 -140 260 -293 595 -625 889 -880 16 -14 41 -36 56 -50 25 -23 126 -109
161 -137 13 -11 168 -134 195 -155 6 -5 20 -16 32 -26 11 -9 31 -24 43 -32 23
-16 165 -123 190 -143 8 -7 31 -23 50 -37 19 -13 37 -27 40 -30 3 -3 34 -26
70 -50 36 -24 85 -58 110 -75 173 -121 522 -335 785 -480 133 -74 460 -244
470 -245 3 0 60 -27 127 -59 143 -68 168 -79 343 -154 211 -90 422 -170 705
-267 329 -112 905 -269 1120 -306 14 -2 36 -7 50 -10 14 -3 36 -8 50 -11 14
-2 45 -9 70 -14 25 -6 59 -12 75 -15 17 -2 41 -6 55 -9 27 -5 179 -30 245 -40
23 -3 50 -7 60 -9 11 -2 49 -7 85 -12 36 -4 67 -8 70 -9 10 -2 117 -15 165
-20 28 -3 70 -7 95 -10 69 -8 138 -14 225 -21 44 -3 96 -7 115 -9 202 -20 936
-27 1195 -12 77 5 165 10 195 12 82 4 352 30 425 40 17 2 57 7 90 10 33 4 71
8 85 10 14 2 45 6 70 10 25 3 56 8 70 10 14 3 39 7 55 9 17 3 73 12 125 21 52
9 109 18 125 21 17 2 41 7 55 9 37 8 68 14 130 25 30 6 68 13 83 15 48 9 395
93 497 121 52 14 102 27 111 29 121 26 613 186 834 270 83 31 177 67 211 80
88 33 328 135 336 143 4 4 -336 6 -755 6 l-762 -1 -145 -37 c-80 -21 -152 -39
-160 -41 -8 -2 -78 -17 -155 -34 -77 -16 -160 -34 -185 -40 -61 -13 -81 -17
-260 -46 -186 -31 -190 -32 -260 -40 -30 -4 -63 -9 -73 -11 -10 -2 -46 -6 -80
-9 -34 -4 -64 -8 -67 -10 -3 -2 -43 -6 -90 -9 -47 -4 -96 -9 -110 -11 -14 -2
-68 -7 -120 -11 -52 -3 -102 -8 -110 -9 -138 -26 -1063 -26 -1350 0 -19 2 -78
6 -130 10 -52 3 -102 8 -110 10 -8 2 -46 7 -85 10 -85 7 -151 14 -185 20 -14
3 -47 7 -75 10 -27 4 -77 10 -110 15 -33 5 -78 12 -100 15 -22 3 -62 10 -90
15 -27 5 -61 11 -75 14 -508 87 -1171 267 -1655 450 -149 57 -232 89 -272 107
-24 11 -45 19 -49 19 -3 0 -29 11 -57 24 -29 13 -97 42 -152 66 -113 47 -511
242 -655 321 -522 283 -969 581 -1455 969 -99 79 -185 149 -191 154 -6 6 -44
40 -84 76 -164 145 -306 278 -444 416 -124 125 -289 299 -390 413 -60 68 -114
128 -120 134 -121 127 -627 795 -700 924 -1 1 -1 -198 -1 -441z"/>
<path d="M18675 4435 c-27 -42 -55 -84 -60 -93 -36 -60 -180 -268 -187 -270
-4 -2 -8 -8 -8 -13 0 -5 -7 -17 -15 -26 -8 -10 -55 -73 -105 -140 l-91 -121 2
-319 c0 -175 2 -622 3 -993 l1 -675 -6012 0 c-3307 0 -6013 -3 -6013 -6 0 -3
35 -20 78 -39 42 -18 111 -49 152 -68 215 -97 643 -255 960 -354 l165 -51
5583 -1 c3071 -1 5588 2 5593 5 5 3 8 660 7 1623 l-3 1618 -50 -77z"/>
</g>
</svg>
